<svg width="146" height="30" viewBox="0 0 146 30" fill="none" xmlns="http://www.w3.org/2000/svg">
<path d="M4.64 13.22V18.58C4.64 18.9533 4.72667 19.2267 4.9 19.4C5.08667 19.56 5.39333 19.64 5.82 19.64H7.12V22H5.36C3 22 1.82 20.8533 1.82 18.56V13.22H0.5V10.92H1.82V8.18H4.64V10.92H7.12V13.22H4.64ZM14.0539 22.18C12.9872 22.18 12.0272 21.9467 11.1739 21.48C10.3206 21 9.64724 20.3267 9.15391 19.46C8.67391 18.5933 8.43391 17.5933 8.43391 16.46C8.43391 15.3267 8.68057 14.3267 9.17391 13.46C9.68057 12.5933 10.3672 11.9267 11.2339 11.46C12.1006 10.98 13.0672 10.74 14.1339 10.74C15.2006 10.74 16.1672 10.98 17.0339 11.46C17.9006 11.9267 18.5806 12.5933 19.0739 13.46C19.5806 14.3267 19.8339 15.3267 19.8339 16.46C19.8339 17.5933 19.5739 18.5933 19.0539 19.46C18.5472 20.3267 17.8539 21 16.9739 21.48C16.1072 21.9467 15.1339 22.18 14.0539 22.18ZM14.0539 19.74C14.5606 19.74 15.0339 19.62 15.4739 19.38C15.9272 19.1267 16.2872 18.7533 16.5539 18.26C16.8206 17.7667 16.9539 17.1667 16.9539 16.46C16.9539 15.4067 16.6739 14.6 16.1139 14.04C15.5672 13.4667 14.8939 13.18 14.0939 13.18C13.2939 13.18 12.6206 13.4667 12.0739 14.04C11.5406 14.6 11.2739 15.4067 11.2739 16.46C11.2739 17.5133 11.5339 18.3267 12.0539 18.9C12.5872 19.46 13.2539 19.74 14.0539 19.74ZM26.8078 22.18C25.7411 22.18 24.7811 21.9467 23.9278 21.48C23.0745 21 22.4011 20.3267 21.9078 19.46C21.4278 18.5933 21.1878 17.5933 21.1878 16.46C21.1878 15.3267 21.4345 14.3267 21.9278 13.46C22.4345 12.5933 23.1211 11.9267 23.9878 11.46C24.8545 10.98 25.8211 10.74 26.8878 10.74C27.9545 10.74 28.9211 10.98 29.7878 11.46C30.6545 11.9267 31.3345 12.5933 31.8278 13.46C32.3345 14.3267 32.5878 15.3267 32.5878 16.46C32.5878 17.5933 32.3278 18.5933 31.8078 19.46C31.3011 20.3267 30.6078 21 29.7278 21.48C28.8611 21.9467 27.8878 22.18 26.8078 22.18ZM26.8078 19.74C27.3145 19.74 27.7878 19.62 28.2278 19.38C28.6811 19.1267 29.0411 18.7533 29.3078 18.26C29.5745 17.7667 29.7078 17.1667 29.7078 16.46C29.7078 15.4067 29.4278 14.6 28.8678 14.04C28.3211 13.4667 27.6478 13.18 26.8478 13.18C26.0478 13.18 25.3745 13.4667 24.8278 14.04C24.2945 14.6 24.0278 15.4067 24.0278 16.46C24.0278 17.5133 24.2878 18.3267 24.8078 18.9C25.3411 19.46 26.0078 19.74 26.8078 19.74ZM37.4417 7.2V22H34.6417V7.2H37.4417ZM44.4481 22.18C43.5415 22.18 42.7281 22.02 42.0081 21.7C41.2881 21.3667 40.7148 20.92 40.2881 20.36C39.8748 19.8 39.6481 19.18 39.6081 18.5H42.4281C42.4815 18.9267 42.6881 19.28 43.0481 19.56C43.4215 19.84 43.8815 19.98 44.4281 19.98C44.9615 19.98 45.3748 19.8733 45.6681 19.66C45.9748 19.4467 46.1281 19.1733 46.1281 18.84C46.1281 18.48 45.9415 18.2133 45.5681 18.04C45.2081 17.8533 44.6281 17.6533 43.8281 17.44C43.0015 17.24 42.3215 17.0333 41.7881 16.82C41.2681 16.6067 40.8148 16.28 40.4281 15.84C40.0548 15.4 39.8681 14.8067 39.8681 14.06C39.8681 13.4467 40.0415 12.8867 40.3881 12.38C40.7481 11.8733 41.2548 11.4733 41.9081 11.18C42.5748 10.8867 43.3548 10.74 44.2481 10.74C45.5681 10.74 46.6215 11.0733 47.4081 11.74C48.1948 12.3933 48.6281 13.28 48.7081 14.4H46.0281C45.9881 13.96 45.8015 13.6133 45.4681 13.36C45.1481 13.0933 44.7148 12.96 44.1681 12.96C43.6615 12.96 43.2681 13.0533 42.9881 13.24C42.7215 13.4267 42.5881 13.6867 42.5881 14.02C42.5881 14.3933 42.7748 14.68 43.1481 14.88C43.5215 15.0667 44.1015 15.26 44.8881 15.46C45.6881 15.66 46.3481 15.8667 46.8681 16.08C47.3881 16.2933 47.8348 16.6267 48.2081 17.08C48.5948 17.52 48.7948 18.1067 48.8081 18.84C48.8081 19.48 48.6281 20.0533 48.2681 20.56C47.9215 21.0667 47.4148 21.4667 46.7481 21.76C46.0948 22.04 45.3281 22.18 44.4481 22.18ZM61.2866 12.36C61.2866 13.1067 61.1066 13.8067 60.7466 14.46C60.3999 15.1133 59.8466 15.64 59.0866 16.04C58.3399 16.44 57.3932 16.64 56.2466 16.64H53.9066V22H51.1066V8.04H56.2466C57.3266 8.04 58.2466 8.22667 59.0066 8.6C59.7666 8.97333 60.3332 9.48667 60.7066 10.14C61.0932 10.7933 61.2866 11.5333 61.2866 12.36ZM56.1266 14.38C56.8999 14.38 57.4732 14.2067 57.8466 13.86C58.2199 13.5 58.4066 13 58.4066 12.36C58.4066 11 57.6466 10.32 56.1266 10.32H53.9066V14.38H56.1266ZM66.0745 12.64C66.4345 12.0533 66.9012 11.5933 67.4745 11.26C68.0612 10.9267 68.7279 10.76 69.4745 10.76V13.7H68.7345C67.8545 13.7 67.1879 13.9067 66.7345 14.32C66.2945 14.7333 66.0745 15.4533 66.0745 16.48V22H63.2745V10.92H66.0745V12.64ZM70.6405 16.42C70.6405 15.3 70.8605 14.3067 71.3005 13.44C71.7538 12.5733 72.3605 11.9067 73.1205 11.44C73.8938 10.9733 74.7538 10.74 75.7005 10.74C76.5271 10.74 77.2471 10.9067 77.8605 11.24C78.4871 11.5733 78.9871 11.9933 79.3605 12.5V10.92H82.1805V22H79.3605V20.38C79.0005 20.9 78.5005 21.3333 77.8605 21.68C77.2338 22.0133 76.5071 22.18 75.6805 22.18C74.7471 22.18 73.8938 21.94 73.1205 21.46C72.3605 20.98 71.7538 20.3067 71.3005 19.44C70.8605 18.56 70.6405 17.5533 70.6405 16.42ZM79.3605 16.46C79.3605 15.78 79.2271 15.2 78.9605 14.72C78.6938 14.2267 78.3338 13.8533 77.8805 13.6C77.4271 13.3333 76.9405 13.2 76.4205 13.2C75.9005 13.2 75.4205 13.3267 74.9805 13.58C74.5405 13.8333 74.1805 14.2067 73.9005 14.7C73.6338 15.18 73.5005 15.7533 73.5005 16.42C73.5005 17.0867 73.6338 17.6733 73.9005 18.18C74.1805 18.6733 74.5405 19.0533 74.9805 19.32C75.4338 19.5867 75.9138 19.72 76.4205 19.72C76.9405 19.72 77.4271 19.5933 77.8805 19.34C78.3338 19.0733 78.6938 18.7 78.9605 18.22C79.2271 17.7267 79.3605 17.14 79.3605 16.46ZM88.1752 13.22V18.58C88.1752 18.9533 88.2618 19.2267 88.4352 19.4C88.6218 19.56 88.9285 19.64 89.3552 19.64H90.6552V22H88.8952C86.5352 22 85.3552 20.8533 85.3552 18.56V13.22H84.0352V10.92H85.3552V8.18H88.1752V10.92H90.6552V13.22H88.1752ZM94.0891 9.6C93.5957 9.6 93.1824 9.44667 92.8491 9.14C92.5291 8.82 92.3691 8.42667 92.3691 7.96C92.3691 7.49333 92.5291 7.10667 92.8491 6.8C93.1824 6.48 93.5957 6.32 94.0891 6.32C94.5824 6.32 94.9891 6.48 95.3091 6.8C95.6424 7.10667 95.8091 7.49333 95.8091 7.96C95.8091 8.42667 95.6424 8.82 95.3091 9.14C94.9891 9.44667 94.5824 9.6 94.0891 9.6ZM95.4691 10.92V22H92.6691V10.92H95.4691ZM97.5155 16.46C97.5155 15.3133 97.7488 14.3133 98.2155 13.46C98.6821 12.5933 99.3288 11.9267 100.155 11.46C100.982 10.98 101.929 10.74 102.995 10.74C104.369 10.74 105.502 11.0867 106.395 11.78C107.302 12.46 107.909 13.42 108.215 14.66H105.195C105.035 14.18 104.762 13.8067 104.375 13.54C104.002 13.26 103.535 13.12 102.975 13.12C102.175 13.12 101.542 13.4133 101.075 14C100.609 14.5733 100.375 15.3933 100.375 16.46C100.375 17.5133 100.609 18.3333 101.075 18.92C101.542 19.4933 102.175 19.78 102.975 19.78C104.109 19.78 104.849 19.2733 105.195 18.26H108.215C107.909 19.46 107.302 20.4133 106.395 21.12C105.489 21.8267 104.355 22.18 102.995 22.18C101.929 22.18 100.982 21.9467 100.155 21.48C99.3288 21 98.6821 20.3333 98.2155 19.48C97.7488 18.6133 97.5155 17.6067 97.5155 16.46ZM109.547 16.42C109.547 15.3 109.767 14.3067 110.207 13.44C110.66 12.5733 111.267 11.9067 112.027 11.44C112.8 10.9733 113.66 10.74 114.607 10.74C115.433 10.74 116.153 10.9067 116.767 11.24C117.393 11.5733 117.893 11.9933 118.267 12.5V10.92H121.087V22H118.267V20.38C117.907 20.9 117.407 21.3333 116.767 21.68C116.14 22.0133 115.413 22.18 114.587 22.18C113.653 22.18 112.8 21.94 112.027 21.46C111.267 20.98 110.66 20.3067 110.207 19.44C109.767 18.56 109.547 17.5533 109.547 16.42ZM118.267 16.46C118.267 15.78 118.133 15.2 117.867 14.72C117.6 14.2267 117.24 13.8533 116.787 13.6C116.333 13.3333 115.847 13.2 115.327 13.2C114.807 13.2 114.327 13.3267 113.887 13.58C113.447 13.8333 113.087 14.2067 112.807 14.7C112.54 15.18 112.407 15.7533 112.407 16.42C112.407 17.0867 112.54 17.6733 112.807 18.18C113.087 18.6733 113.447 19.0533 113.887 19.32C114.34 19.5867 114.82 19.72 115.327 19.72C115.847 19.72 116.333 19.5933 116.787 19.34C117.24 19.0733 117.6 18.7 117.867 18.22C118.133 17.7267 118.267 17.14 118.267 16.46ZM128.061 22.18C127.155 22.18 126.341 22.02 125.621 21.7C124.901 21.3667 124.328 20.92 123.901 20.36C123.488 19.8 123.261 19.18 123.221 18.5H126.041C126.095 18.9267 126.301 19.28 126.661 19.56C127.035 19.84 127.495 19.98 128.041 19.98C128.575 19.98 128.988 19.8733 129.281 19.66C129.588 19.4467 129.741 19.1733 129.741 18.84C129.741 18.48 129.555 18.2133 129.181 18.04C128.821 17.8533 128.241 17.6533 127.441 17.44C126.615 17.24 125.935 17.0333 125.401 16.82C124.881 16.6067 124.428 16.28 124.041 15.84C123.668 15.4 123.481 14.8067 123.481 14.06C123.481 13.4467 123.655 12.8867 124.001 12.38C124.361 11.8733 124.868 11.4733 125.521 11.18C126.188 10.8867 126.968 10.74 127.861 10.74C129.181 10.74 130.235 11.0733 131.021 11.74C131.808 12.3933 132.241 13.28 132.321 14.4H129.641C129.601 13.96 129.415 13.6133 129.081 13.36C128.761 13.0933 128.328 12.96 127.781 12.96C127.275 12.96 126.881 13.0533 126.601 13.24C126.335 13.4267 126.201 13.6867 126.201 14.02C126.201 14.3933 126.388 14.68 126.761 14.88C127.135 15.0667 127.715 15.26 128.501 15.46C129.301 15.66 129.961 15.8667 130.481 16.08C131.001 16.2933 131.448 16.6267 131.821 17.08C132.208 17.52 132.408 18.1067 132.421 18.84C132.421 19.48 132.241 20.0533 131.881 20.56C131.535 21.0667 131.028 21.4667 130.361 21.76C129.708 22.04 128.941 22.18 128.061 22.18Z" fill="#1E1E1E"/>
<path d="M4.86444 13.1111C127.518 39.5 165.752 13.1111 134.471 13.1111" stroke="#1E1E1E" stroke-linecap="round"/>
</svg>
