<svg width="48" height="48" viewBox="0 0 48 48" fill="none" xmlns="http://www.w3.org/2000/svg">
<path d="M36.9 21.15H34.35C34.2 21.15 34.05 21.3 33.975 21.45L32.925 28.05C32.925 28.2 33 28.275 33.15 28.275H34.5C34.65 28.275 34.725 28.2 34.725 28.05L35.025 26.175C35.025 26.025 35.175 25.875 35.4 25.875H36.225C37.95 25.875 38.925 25.05 39.15 23.4C39.3 22.725 39.15 22.125 38.85 21.75C38.4 21.375 37.725 21.15 36.9 21.15M37.2 23.625C37.05 24.525 36.375 24.525 35.7 24.525H35.25L35.55 22.8C35.55 22.725 35.625 22.65 35.775 22.65H35.925C36.375 22.65 36.825 22.65 37.05 22.95C37.2 23.025 37.2 23.25 37.2 23.625" fill="#139AD6"/>
<path d="M18.525 21.15H15.975C15.825 21.15 15.675 21.3 15.6 21.45L14.55 28.05C14.55 28.2 14.625 28.275 14.775 28.275H15.975C16.125 28.275 16.275 28.125 16.35 27.975L16.65 26.175C16.65 26.025 16.8 25.875 17.025 25.875H17.85C19.575 25.875 20.55 25.05 20.775 23.4C20.925 22.725 20.775 22.125 20.475 21.75C20.025 21.375 19.425 21.15 18.525 21.15M18.825 23.625C18.675 24.525 18 24.525 17.325 24.525H16.95L17.25 22.8C17.25 22.725 17.325 22.65 17.475 22.65H17.625C18.075 22.65 18.525 22.65 18.75 22.95C18.825 23.025 18.9 23.25 18.825 23.625ZM26.25 23.55H25.0501C24.9751 23.55 24.825 23.625 24.825 23.7L24.75 24.075L24.6751 23.925C24.3751 23.55 23.85 23.4 23.25 23.4C21.9 23.4 20.7 24.45 20.475 25.875C20.325 26.625 20.55 27.3 20.925 27.75C21.3 28.2 21.825 28.35 22.5 28.35C23.625 28.35 24.225 27.675 24.225 27.675L24.15 28.05C24.15 28.2 24.225 28.275 24.375 28.275H25.5C25.65 28.275 25.8 28.125 25.875 27.975L26.5501 23.775C26.4751 23.7 26.325 23.55 26.25 23.55M24.525 25.95C24.375 26.625 23.85 27.15 23.1 27.15C22.725 27.15 22.425 27 22.275 26.85C22.125 26.625 22.05 26.325 22.05 25.95C22.125 25.275 22.725 24.75 23.4 24.75C23.775 24.75 24 24.9 24.225 25.05C24.45 25.275 24.525 25.65 24.525 25.95Z" fill="#263B80"/>
<path d="M44.55 23.55H43.35C43.275 23.55 43.125 23.625 43.125 23.7L43.05 24.075L42.975 23.925C42.675 23.55 42.15 23.4 41.55 23.4C40.2 23.4 39 24.45 38.775 25.875C38.625 26.625 38.85 27.3 39.225 27.75C39.6 28.2 40.125 28.35 40.8 28.35C41.925 28.35 42.525 27.675 42.525 27.675L42.45 28.05C42.45 28.2 42.525 28.275 42.675 28.275H43.8C43.95 28.275 44.1 28.125 44.175 27.975L44.85 23.775C44.775 23.7 44.7 23.55 44.55 23.55M42.825 25.95C42.675 26.625 42.15 27.15 41.4 27.15C41.025 27.15 40.725 27 40.575 26.85C40.425 26.625 40.35 26.325 40.35 25.95C40.425 25.275 41.025 24.75 41.7 24.75C42.075 24.75 42.3 24.9 42.525 25.05C42.825 25.275 42.9 25.65 42.825 25.95Z" fill="#139AD6"/>
<path d="M32.775 23.55H31.5C31.35 23.55 31.275 23.625 31.2 23.7L29.55 26.25L28.8 23.85C28.725 23.7 28.65 23.625 28.425 23.625H27.225C27.075 23.625 27 23.775 27 23.925L28.35 27.9L27.075 29.7C27 29.85 27.075 30.075 27.225 30.075H28.425C28.575 30.075 28.65 30 28.725 29.925L32.85 24C33.075 23.775 32.925 23.55 32.775 23.55" fill="#263B80"/>
<path d="M45.975 21.375L44.925 28.125C44.925 28.275 45 28.35 45.15 28.35H46.2C46.35 28.35 46.5 28.2 46.575 28.05L47.625 21.45C47.625 21.3 47.55 21.225 47.4 21.225H46.2C46.125 21.15 46.05 21.225 45.975 21.375" fill="#139AD6"/>
<path d="M9 18.9C8.475 18.3 7.5 18 6.15 18H2.4C2.175 18 1.95 18.225 1.875 18.45L0.375 28.275C0.375 28.5 0.525 28.65 0.675 28.65H3L3.6 24.975V25.125C3.675 24.9 3.9 24.675 4.125 24.675H5.25C7.425 24.675 9.075 23.775 9.6 21.3V21.075C9.525 21.075 9.525 21.075 9.6 21.075C9.675 20.1 9.525 19.5 9 18.9" fill="#263B80"/>
<path d="M9.5249 21.075V21.3C8.9999 23.85 7.3499 24.675 5.1749 24.675H4.0499C3.8249 24.675 3.5999 24.9 3.5249 25.125L2.7749 29.7C2.7749 29.85 2.8499 30 3.0749 30H5.0249C5.2499 30 5.4749 29.85 5.4749 29.625V29.55L5.8499 27.225V27.075C5.8499 26.85 6.0749 26.7 6.2999 26.7H6.5999C8.4749 26.7 9.9749 25.95 10.3499 23.7C10.4999 22.8 10.4249 21.975 9.9749 21.45C9.8999 21.3 9.7499 21.15 9.5249 21.075" fill="#139AD6"/>
<path d="M9.0001 20.85C8.9251 20.85 8.8501 20.775 8.7751 20.775C8.7001 20.775 8.6251 20.775 8.5501 20.7C8.2501 20.625 7.9501 20.625 7.5751 20.625H4.6501C4.5751 20.625 4.5001 20.625 4.4251 20.7C4.2751 20.775 4.2001 20.925 4.2001 21.075L3.6001 24.975V25.125C3.6751 24.9 3.9001 24.675 4.1251 24.675H5.2501C7.4251 24.675 9.0751 23.775 9.6001 21.3C9.6001 21.225 9.6001 21.15 9.6751 21.075C9.5251 21 9.4501 20.925 9.3001 20.925C9.0751 20.85 9.0751 20.85 9.0001 20.85" fill="#232C65"/>
</svg>
