<svg width="36" height="36" viewBox="0 0 36 36" fill="none" xmlns="http://www.w3.org/2000/svg">
<path d="M28.076 27.5326C26.663 27.5326 25.3369 26.9891 24.3369 25.9891L18.9456 20.5978C18.5761 20.2283 17.9021 20.2283 17.5326 20.5978L12.1195 26.0109C11.1195 27.0109 9.79345 27.5543 8.38041 27.5543H7.31519L14.163 34.4022C16.2934 36.5326 19.7717 36.5326 21.9021 34.4022L28.7717 27.5326H28.076Z" fill="#32BCAD"/>
<path d="M8.35844 8.44565C9.77148 8.44565 11.0976 8.98913 12.0976 9.98913L17.5106 15.4022C17.9019 15.7935 18.5324 15.7935 18.9237 15.4022L24.3367 10.0109C25.3367 9.01087 26.6628 8.46739 28.0758 8.46739H28.728L21.8584 1.59783C19.728 -0.532609 16.2497 -0.532609 14.1193 1.59783L7.27148 8.44565H8.35844V8.44565Z" fill="#32BCAD"/>
<path d="M34.4022 14.1413L30.25 9.98915C30.163 10.0326 30.0544 10.0544 29.9457 10.0544H28.0543C27.0761 10.0544 26.1196 10.4457 25.4457 11.1413L20.0543 16.5326C19.5543 17.0326 18.8804 17.2935 18.2283 17.2935C17.5543 17.2935 16.9022 17.0326 16.4022 16.5326L10.9891 11.1196C10.2935 10.4239 9.33696 10.0326 8.38044 10.0326H6.05435C5.94565 10.0326 5.8587 10.0109 5.77174 9.96741L1.59783 14.1413C-0.532609 16.2718 -0.532609 19.75 1.59783 21.8804L5.74999 26.0326C5.83695 25.9891 5.92392 25.9674 6.03261 25.9674H8.35869C9.33695 25.9674 10.2935 25.5761 10.9674 24.8804L16.3804 19.4674C17.3587 18.4891 19.0761 18.4891 20.0543 19.4674L25.4457 24.8587C26.1413 25.5544 27.0978 25.9457 28.0543 25.9457H29.9457C30.0544 25.9457 30.1413 25.9674 30.25 26.0109L34.4022 21.8587C36.5326 19.7283 36.5326 16.2718 34.4022 14.1413Z" fill="#32BCAD"/>
</svg>
